# xmcd
#
# Track frame offsets:
# 150
# 13855
# 27419
# 41559
# 53861
# 72619
# 88593
# 103711
# 118746
# 130359
# 146027
# 161356
#
# Disc length: 2413 seconds
#
#
# Revision: 2
# Processed by: cddbd v1.5.1PL2 Copyright (c) Steve Scherf et al.
# Submitted via: FreeRIP 2.945 
#
DISCID=ad096b0c
DTITLE=Gene Watson - From My Heart
DYEAR=2001
DGENRE=Country
TTITLE0=Next To Nothin'
TTITLE1=She Had Me
TTITLE2=The Man An' Me And You
TTITLE3=Rose In The Sand
TTITLE4=When You're Not Looking Back
TTITLE5=This Circus That You Call A Rodeo
TTITLE6=The Truth Is I Lied
TTITLE7=Would It Be Cheatin'
TTITLE8=Drivin' Me Sane
TTITLE9=Take Me As I Am Or Let Me Go
TTITLE10=No Trash In My Trailer
TTITLE11=I Never Go Around Mirrors
EXTD=
EXTT0=
EXTT1=
EXTT2=
EXTT3=
EXTT4=
EXTT5=
EXTT6=
EXTT7=
EXTT8=
EXTT9=
EXTT10=
EXTT11=
PLAYORDER=
